<?xml version="1.0" encoding="UTF-8"?>
<svg version="1.1" xmlns="http://www.w3.org/2000/svg" width="130" height="128">
<path d="M0 0 C3.70699735 0.55038389 5.06506756 1.86529564 7.375 4.75 C14.3878972 13.0326007 22.22643116 18.42518142 33.3359375 19.53515625 C37.22300207 19.82105794 41.10330008 19.94560444 45 20 C44.505 18.515 44.505 18.515 44 17 C43.47108908 11.09043756 43.41557528 5.99259158 47 1 C49.109375 0.34765625 49.109375 0.34765625 51 0 C51.21914063 0.51949219 51.43828125 1.03898438 51.6640625 1.57421875 C54.41152623 7.61640526 57.27487533 11.53927327 63.6796875 14.05078125 C67.5177093 15.14800395 71.30874669 15.72856165 75.25 16.3125 C82.19313853 17.42055139 87.96748285 19.2500569 94 23 C93.9175 22.13375 93.835 21.2675 93.75 20.375 C94.06253182 16.15582043 95.34282656 14.24765643 98 11 C100.140625 9.828125 100.140625 9.828125 102 9 C102.350625 10.258125 102.70125 11.51625 103.0625 12.8125 C105.93484413 21.32314928 111.14453092 28.1103497 117 34.8125 C125.45071271 44.68241637 130.37789438 55.22932863 130.2890625 68.33203125 C129.69314342 75.89376125 128.02375165 84.11256611 123 90 C119.40247043 89.3897048 116.35026584 88.3623844 113 86.9375 C104.04400243 83.64680372 94.88949671 83.66134053 86.16015625 87.6640625 C81.01079209 90.84866023 77.81024954 95.25938886 76 101 C75.71077561 104.83842077 75.6229625 108.65594728 75.5390625 112.50390625 C74.9055678 116.61244073 74.2879005 117.55133743 71 120 C68.62247971 121.54144952 66.18504207 122.91335707 63.6875 124.25 C63.04876953 124.61351563 62.41003906 124.97703125 61.75195312 125.3515625 C57.38215854 127.70691278 54.07593555 128.5941942 49 128 C44.94358444 123.40272903 44.67612169 117.25361134 44.7890625 111.32421875 C45.9255339 98.80198761 51.15951409 87.69695542 60.30859375 79.07421875 C70.42921967 71.27443302 81.7256734 67.60459169 94.375 67.625 C95.20555908 67.62371094 96.03611816 67.62242188 96.8918457 67.62109375 C103.21290839 67.72996028 108.45549674 68.80727833 114 72 C112.53825332 64.30659645 111.07403666 57.33271722 105 52 C97.87632244 47.52166469 89.94885261 44.6600491 82 42 C82.495 42.928125 82.495 42.928125 83 43.875 C84 46 84 46 84 48 C84.66 48 85.32 48 86 48 C85.734375 49.86328125 85.734375 49.86328125 85 52 C83.328125 53.23046875 83.328125 53.23046875 81.25 54.1875 C80.57453125 54.51105469 79.8990625 54.83460937 79.203125 55.16796875 C64.3428744 60.78008467 44.72008158 57.51371856 30.5859375 51.5625 C17.11799524 45.00200354 8.27477723 34.97590547 3 21 C0.94963683 13.93028899 -0.15834286 7.36760033 0 0 Z " fill="#F09153" transform="translate(0,0)"/>
<path d="M0 0 C2.3125 -0.3125 2.3125 -0.3125 5 0 C6.81883009 2.3832946 8 3.95818337 8 7 C4.26512223 6.5020163 2.18762365 6.12508244 -1 4 C-0.67 2.68 -0.34 1.36 0 0 Z " fill="#F28950" transform="translate(102,59)"/>
</svg>
